<svg width="54" height="54" viewBox="0 0 54 54" fill="none" xmlns="http://www.w3.org/2000/svg">
<path fill-rule="evenodd" clip-rule="evenodd" d="M34.3958 26.6529C34.3524 26.9311 34.2466 27.1959 34.0863 27.4275C33.926 27.659 33.7154 27.8512 33.4703 27.9898C32.9766 28.3086 32.5447 28.468 32.1077 28.6274C31.177 28.9488 30.1974 29.2702 29.1613 29.643C28.0687 30.0157 27.0891 30.3885 26.215 30.6585C25.1249 31.0313 24.0888 31.3526 23.1041 31.7254C22.3633 32.0425 21.6674 32.4556 21.0345 32.9544C20.4458 33.4877 19.9321 34.0983 19.5073 34.7695C19.0703 35.515 18.7952 36.4766 18.7952 37.5975C18.7952 39.842 19.3402 41.5491 20.4329 42.6161C21.523 43.7396 23.5438 44.2718 26.5389 44.2718C29.5933 44.2718 31.6655 43.6856 32.7607 42.5107C33.8482 41.3357 34.3932 39.6826 34.3932 37.5487V26.6529H34.3958ZM26.5415 3C31.8891 3 35.815 4.01553 38.3217 6.09802C40.831 8.12908 42.0856 10.7412 42.0856 13.8366V40.2148C42.0856 41.2817 41.8696 42.4567 41.4891 43.737C41.1035 45.0225 40.3425 46.1949 39.1418 47.2592C37.9977 48.3313 36.4166 49.2389 34.3984 49.933C32.3802 50.6272 29.7629 51 26.5441 51C23.3304 51 20.708 50.6272 18.6923 49.933C16.6767 49.2389 15.093 48.3313 13.9489 47.2592C12.8846 46.3001 12.0783 45.089 11.6042 43.737C11.2185 42.4592 11 41.2843 11 40.2174V36.001C11 33.7565 11.599 31.674 12.7997 29.8563C14.0003 27.9898 15.6894 26.7095 17.8722 25.9073C18.9623 25.5345 20.2169 25.1618 21.6335 24.681C23.0527 24.1976 24.3588 23.7169 25.6699 23.2927C26.9811 22.8633 28.1252 22.434 29.1048 22.0586C29.6959 21.8221 30.2963 21.6094 30.9044 21.421L31.8866 20.9402C32.2722 20.7268 32.6501 20.4055 33.0332 19.9787C33.4137 19.5545 33.7402 19.0737 34.0153 18.5389C34.306 17.9599 34.4557 17.3203 34.4524 16.6724V14.9627C34.4564 14.3361 34.3249 13.716 34.0667 13.145C33.8508 12.5023 33.4137 11.9161 32.8147 11.3839C32.2156 10.8492 31.3955 10.4224 30.416 10.0984C29.4338 9.78222 28.1278 9.62025 26.6521 9.62025C23.5977 9.62025 21.5795 10.2116 20.4894 11.4354C19.5639 12.5049 19.0189 13.8392 18.9109 15.3329C18.9109 15.6543 18.6383 15.8677 18.3093 15.8677L11.6582 15.9757C11.5002 15.9764 11.3483 15.9146 11.2356 15.8039C11.123 15.6931 11.0586 15.5423 11.0566 15.3844V13.8418C11.0566 12.3429 11.3317 10.9546 11.9307 9.62025C12.5323 8.28334 13.4604 7.16497 14.7125 6.20086C15.9671 5.24189 17.6048 4.44231 19.5665 3.90755C21.4767 3.26481 23.8214 3 26.5466 3H26.5415Z" fill="#0A3871"/>
</svg>
